<svg width="32" height="32" xmlns="http://www.w3.org/2000/svg">
    <path d="M6.605.016c-.99.154-1.7.372-2.464.756A7.003 7.003 0 0 0 2.279 2.1C1.238 3.108.609 4.198.188 5.728l-.165.599-.019 9.322c-.012 6.44.003 9.483.05 9.84.142 1.093.664 2.435 1.294 3.328 1.182 1.674 3.143 2.868 5.146 3.13.358.047 3.381.062 9.814.048 8.598-.02 9.327-.029 9.703-.13 1.558-.418 2.582-.97 3.605-1.944 1.142-1.088 1.984-2.665 2.206-4.13.037-.244.092-.493.123-.553.072-.14.074-18.586.002-18.541-.03.018-.07-.128-.091-.325-.1-.96-.724-2.46-1.397-3.361C29.363 1.546 27.986.65 26.01.12 25.634.02 24.92.01 16.183.002c-5.182-.006-9.492 0-9.578.014m.073 2.533c-1.026.171-1.917.642-2.699 1.426-.811.814-1.26 1.69-1.43 2.794-.045.297-.06 3.288-.046 9.506.018 8.55.025 9.093.132 9.447.3.994.718 1.702 1.39 2.353.671.649 1.319 1.016 2.268 1.286.386.11.86.115 9.672.115 8.811 0 9.285-.006 9.671-.115.934-.266 1.592-.635 2.235-1.254.694-.667 1.125-1.387 1.397-2.328l.143-.495v-9.29c0-8.836-.006-9.312-.115-9.698-.285-1.01-.718-1.74-1.436-2.424a4.91 4.91 0 0 0-2.66-1.326c-.505-.082-18.03-.079-18.522.003m17.415 3.215c-.809.412-1.12 1.327-.716 2.103.559 1.072 2.007 1.16 2.677.161.49-.73.266-1.723-.495-2.192a1.536 1.536 0 0 0-1.466-.072M.033 15.994c0 5.11.012 7.2.027 4.645.014-2.555.014-6.736 0-9.291-.015-2.555-.027-.465-.027 4.645m14.465-7.972c-1.663.292-3.114 1.041-4.28 2.21-1.33 1.334-2.047 2.881-2.306 4.972-.4 3.235 1.457 6.603 4.45 8.07 1.135.556 2.04.783 3.322.832 2.22.086 4.226-.675 5.841-2.216 2.4-2.29 3.159-5.588 2.017-8.775a7.847 7.847 0 0 0-3.824-4.342c-.617-.312-1.599-.63-2.314-.75-.725-.123-2.21-.123-2.906 0m.687 2.4c-2.31.382-4.06 1.963-4.66 4.205-.206.77-.192 1.914.034 2.773.528 2.007 1.807 3.35 3.765 3.954.508.157.63.17 1.64.17 1.011 0 1.134-.013 1.642-.17 2-.617 3.284-2 3.799-4.09.19-.776.19-1.907-.004-2.647-.516-1.98-2.109-3.575-4.063-4.069-.584-.147-1.65-.21-2.153-.127" fill="#FFF" fill-rule="evenodd" opacity=".7"/>
</svg>
