<svg width="32" height="32" xmlns="http://www.w3.org/2000/svg">
    <path d="M5.855.105C3.582.488 1.425 2.249.521 4.462-.016 5.772 0 5.422 0 16.054c0 9.3.01 9.925.183 10.539.572 2.035 1.98 3.767 3.796 4.67 1.478.734.843.693 11.233.726 10.01.032 10.092.028 11.41-.472 1.676-.636 3.268-2.22 3.995-3.97.251-.605.615-2.144.528-2.232-.026-.026-.486.232-1.023.573-2.31 1.465-4.735 2.359-7.52 2.77-.848.126-1.558.154-2.956.117-2.228-.059-3.399-.271-5.471-.994-1.96-.683-2.472-.815-2.919-.755-.21.029-.97.346-1.69.706-1.54.77-2.318.969-3.786.969-.956 0-1.067-.02-1.32-.24-.244-.212-.262-.267-.16-.494.064-.14.353-.438.643-.66 1.098-.84 1.517-1.347 2.023-2.445.419-.907.31-1.346-.615-2.465-2.942-3.56-3.876-8.406-2.46-12.766.83-2.56 2.748-5.24 5.061-7.072 1.022-.81 1.73-1.264 3.084-1.98L13.13 0 9.748.01c-1.86.005-3.612.048-3.893.095M21.64 9.197c-.206.264-.21.334-.182 4.111.032 4.333.004 4.179.775 4.179.77 0 .742.154.774-4.179.028-3.777.025-3.847-.181-4.111-.163-.209-.296-.269-.593-.269-.298 0-.43.06-.593.269M9.219 9.7c-.317.265-.378.734-.135 1.037.192.24.248.25 1.78.298l1.583.05-1.769 2.56c-1.463 2.118-1.769 2.62-1.772 2.913-.005.47.22.77.671.896.587.164 4.333.135 4.742-.037.596-.252.744-.895.29-1.256-.241-.191-.394-.208-1.89-.208-.895 0-1.628-.037-1.628-.082 0-.045.783-1.207 1.74-2.582 1.566-2.249 1.741-2.542 1.741-2.91 0-.806.034-.796-2.71-.83-2.217-.027-2.447-.014-2.644.151m7.976 1.78a3.608 3.608 0 0 0-.846.444c-1.187.862-1.561 2.774-.828 4.235.587 1.169 2.128 1.661 3.274 1.046l.472-.253.197.253c.258.331.857.353 1.137.042.172-.192.192-.415.22-2.484.017-1.25.004-2.418-.029-2.596-.082-.448-.298-.63-.748-.63-.291 0-.43.06-.581.253l-.198.254-.27-.253c-.272-.253-.818-.46-1.189-.448-.11.004-.384.065-.611.136m8.52.015c-.302.083-.716.263-.922.4-1.339.892-1.665 3.222-.64 4.578.468.62 1.13.928 2.086.972.714.033.835.009 1.427-.285.44-.219.74-.453.941-.732 1.122-1.563.537-3.973-1.152-4.749-.69-.316-1.104-.36-1.74-.184m-8.157 1.519c-.72.265-1.06 1.5-.643 2.338.304.612 1.03.868 1.608.567.874-.456.888-2.378.02-2.83-.28-.146-.705-.179-.985-.075m8.196.12c-.591.363-.8 1.393-.443 2.186.413.919 1.59.995 2.02.13.378-.76.14-2.095-.423-2.379a1.192 1.192 0 0 0-1.154.062" fill="#FFF" fill-rule="evenodd" opacity=".7"/>
</svg>
