<svg width="31" height="31" viewBox="0 0 31 31" fill="none" xmlns="http://www.w3.org/2000/svg">
<path fill-rule="evenodd" clip-rule="evenodd" d="M9.44768 1.20731C8.1757 1.73875 7.07041 2.23307 6.9914 2.3058C6.8226 2.46122 6.687 2.7546 6.687 2.96428C6.687 3.04616 6.85955 3.52869 7.07046 4.03655L7.45393 4.96003L7.29041 5.09751C6.28037 5.94661 5.72699 6.49993 5.06475 7.32299L4.95677 7.45718L4.0384 7.07372C3.53335 6.86281 3.04677 6.69025 2.95721 6.69025C2.71791 6.69025 2.32905 6.89835 2.21843 7.08557C2.16541 7.17536 1.69544 8.27784 1.17408 9.53557C0.341752 11.5435 0.229375 11.8526 0.252778 12.0712C0.301986 12.5306 0.471783 12.6692 1.50711 13.0948L2.43474 13.4762L2.40542 13.9396C2.38929 14.1945 2.37609 14.7857 2.37609 15.2534C2.37609 15.7212 2.38929 16.3124 2.40542 16.5672L2.43474 17.0306L1.50711 17.412C0.471842 17.8377 0.302104 17.9762 0.252719 18.4356C0.2292 18.6545 0.34316 18.9672 1.19666 21.025C1.73057 22.3123 2.22753 23.4308 2.30107 23.5107C2.4592 23.6823 2.75111 23.8166 2.96613 23.8166C3.05082 23.8166 3.53335 23.644 4.0384 23.4331L4.95677 23.0497L5.06475 23.1838C5.72699 24.0069 6.28037 24.5602 7.29041 25.4093L7.45393 25.5468L7.07046 26.4703C6.85955 26.9781 6.687 27.4607 6.687 27.5426C6.687 27.7522 6.8226 28.0456 6.99128 28.2009C7.07023 28.2736 8.18872 28.7705 9.47689 29.3051C11.5342 30.1589 11.8493 30.2739 12.068 30.2506C12.5243 30.2021 12.662 30.0337 13.0928 28.9979L13.4792 28.0688L13.9394 28.0982C14.1926 28.1143 14.7824 28.1275 15.2502 28.1275C15.7179 28.1275 16.3077 28.1143 16.5609 28.0982L17.0212 28.0688L17.4076 28.9979C17.8383 30.0337 17.9759 30.2019 18.4324 30.2507C18.651 30.2741 18.9661 30.1594 21.0183 29.31C22.3037 28.7779 23.4222 28.281 23.5039 28.2057C23.6772 28.046 23.8133 27.7543 23.8133 27.5426C23.8133 27.4607 23.6408 26.9781 23.43 26.4703L23.0468 25.5468L23.1808 25.4392C23.9345 24.8337 24.8489 23.919 25.4362 23.1828L25.5441 23.0475L26.4674 23.4321C26.9753 23.6436 27.4577 23.8166 27.5395 23.8166C27.7497 23.8166 28.0425 23.6807 28.1993 23.5107C28.2728 23.4308 28.7698 22.3123 29.3037 21.025C30.1572 18.9672 30.2711 18.6545 30.2476 18.4356C30.1983 17.9767 30.0275 17.8369 28.9928 17.4082L28.0656 17.0241L28.0949 16.5639C28.111 16.3109 28.1242 15.7212 28.1242 15.2534C28.1242 14.7857 28.111 14.1959 28.0949 13.9429L28.0656 13.4828L28.9928 13.0987C30.0275 12.67 30.1983 12.5302 30.2476 12.0712C30.2711 11.8524 30.1572 11.5396 29.3037 9.48179C28.7698 8.19456 28.2728 7.07601 28.1993 6.99618C28.0425 6.82609 27.7497 6.69025 27.5395 6.69025C27.4577 6.69025 26.9753 6.86328 26.4674 7.07478L25.5441 7.4593L25.4358 7.32405C24.8041 6.53483 23.9892 5.71951 23.1808 5.068L23.0468 4.96003L23.43 4.03655C23.6408 3.52869 23.8133 3.04616 23.8133 2.96428C23.8133 2.75255 23.6772 2.46081 23.5039 2.3011C23.4222 2.22585 22.3037 1.7289 21.0183 1.19687C18.9661 0.347413 18.651 0.232748 18.4324 0.256092C17.9759 0.30489 17.8383 0.473162 17.4076 1.50895L17.0212 2.438L16.5609 2.40867C16.3077 2.39254 15.7179 2.37935 15.2502 2.37935C14.7824 2.37935 14.1926 2.39254 13.9394 2.40867L13.4792 2.438L13.0928 1.50895C12.6515 0.447824 12.5214 0.294039 12.0365 0.260256C11.7909 0.24313 11.5042 0.348058 9.44768 1.20731ZM11.8628 3.14188C12.0482 3.58822 12.2429 4.00078 12.2953 4.05866C12.3477 4.11661 12.5025 4.20676 12.6393 4.25896C12.8705 4.34729 12.9328 4.34647 13.5265 4.2477C13.9816 4.17204 14.477 4.14148 15.2502 4.14148C16.0234 4.14148 16.5187 4.17204 16.9738 4.2477C17.573 4.34741 17.6281 4.34794 17.8675 4.2565C18.1938 4.13192 18.2862 3.99649 18.6512 3.10856C18.816 2.70762 18.9721 2.35835 18.998 2.33248C19.0376 2.29283 21.6439 3.32821 21.7358 3.42006C21.7528 3.43713 21.6172 3.8162 21.4343 4.26248C20.9377 5.47458 20.9685 5.62015 21.8622 6.28661C22.5972 6.83477 23.6716 7.91015 24.2127 8.63937C24.8757 9.53293 25.0275 9.56519 26.2425 9.07081C26.6897 8.88888 27.0689 8.75321 27.085 8.7694C27.1757 8.86008 28.2104 11.4663 28.1712 11.5055C28.1454 11.5313 27.769 11.6998 27.3348 11.88C26.9006 12.0602 26.4991 12.2496 26.4425 12.3008C26.3859 12.352 26.2968 12.5058 26.2446 12.6425C26.1563 12.8737 26.1571 12.936 26.2559 13.5298C26.4022 14.4097 26.4022 16.0972 26.2559 16.9771C26.1571 17.5708 26.1563 17.6331 26.2446 17.8643C26.2968 18.0011 26.3859 18.1549 26.4425 18.2061C26.4991 18.2573 26.9006 18.4467 27.3348 18.6268C27.769 18.807 28.1446 18.9749 28.1696 18.9998C28.2082 19.0383 27.1757 21.6468 27.0866 21.7359C27.0696 21.7529 26.6897 21.618 26.2425 21.436C25.0275 20.9416 24.8757 20.9739 24.2127 21.8675C23.6716 22.5967 22.5972 23.6721 21.8622 24.2202C20.9685 24.8867 20.9377 25.0323 21.4343 26.2444C21.6172 26.6906 21.7528 27.0697 21.7358 27.0868C21.6441 27.1783 19.0377 28.2141 18.9984 28.1745C18.9728 28.1486 18.8056 27.7738 18.627 27.3415C18.4483 26.9092 18.2589 26.5076 18.206 26.4492C18.153 26.3907 17.9978 26.3001 17.861 26.2479C17.6298 26.1595 17.5676 26.1604 16.9738 26.2591C16.0939 26.4055 14.4064 26.4055 13.5265 26.2591C12.9328 26.1604 12.8705 26.1595 12.6393 26.2479C12.5025 26.3001 12.3473 26.3907 12.2943 26.4492C12.2414 26.5076 12.052 26.9092 11.8733 27.3415C11.6947 27.7738 11.5275 28.1486 11.5019 28.1745C11.4638 28.2128 8.84926 27.1715 8.76028 27.0825C8.74562 27.0678 8.88316 26.6906 9.06603 26.2444C9.5627 25.0322 9.53032 24.8795 8.63612 24.216C7.9069 23.6749 6.83152 22.6005 6.28336 21.8654C5.6169 20.9717 5.47132 20.9409 4.25922 21.4375C3.81294 21.6204 3.43317 21.7553 3.41528 21.7374C3.32496 21.6472 2.29175 19.0387 2.33081 18.9996C2.3558 18.9746 2.70436 18.8193 3.10531 18.6545C3.99324 18.2895 4.12867 18.197 4.25324 17.8708C4.34468 17.6314 4.34415 17.5762 4.24444 16.9771C4.09811 16.0972 4.09811 14.4097 4.24444 13.5298C4.34321 12.936 4.34403 12.8737 4.2557 12.6425C4.20351 12.5058 4.11289 12.3506 4.05441 12.2976C3.99594 12.2447 3.59441 12.0553 3.16208 11.8766C2.72982 11.6979 2.35498 11.5308 2.32911 11.5052C2.28952 11.4659 3.32525 8.85943 3.41681 8.76782C3.43388 8.75081 3.80555 8.88342 4.24274 9.06254C5.08674 9.4083 5.38552 9.45768 5.68792 9.30126C5.78042 9.25346 6.04834 8.9565 6.28336 8.64142C6.83152 7.90634 7.9069 6.83196 8.63612 6.29084C9.53032 5.62737 9.5627 5.47464 9.06603 4.26248C8.88316 3.8162 8.74562 3.43907 8.76034 3.42435C8.82251 3.36212 11.4137 2.29946 11.4671 2.31424C11.4994 2.32316 11.6774 2.6956 11.8628 3.14188ZM14.3411 5.90555C10.1841 6.35177 6.8507 9.40196 6.03074 13.5098C5.84241 14.4532 5.84241 16.0537 6.03074 16.997C6.79193 20.8104 9.69314 23.7117 13.5066 24.4728C14.4452 24.6602 16.0509 24.661 16.9837 24.4748C20.8442 23.7037 23.7482 20.7726 24.4925 16.8957C24.6556 16.0466 24.6443 14.3851 24.4696 13.5098C23.7114 9.71141 20.8139 6.80005 17.039 6.04391C16.4644 5.92878 14.881 5.8476 14.3411 5.90555ZM16.8338 7.79795C18.3427 8.14054 19.4981 8.77304 20.5955 9.85704C21.7153 10.9633 22.3941 12.2133 22.7368 13.8007C22.884 14.4826 22.8829 16.0297 22.7345 16.7174C22.4351 18.1057 21.7616 19.4388 20.8928 20.3624L20.5582 20.7182L18.3479 18.8216L16.1376 16.925L16.1338 16.3825L16.1299 15.8399H17.5399C18.8373 15.8399 18.9684 15.8305 19.1814 15.7219C19.3304 15.6459 19.455 15.5213 19.531 15.3722C19.6422 15.1541 19.649 15.0294 19.649 13.2006C19.649 11.3718 19.6422 11.2471 19.531 11.029C19.455 10.8799 19.3304 10.7554 19.1814 10.6793C18.9632 10.5681 18.8385 10.5613 17.0097 10.5613C15.181 10.5613 15.0563 10.5681 14.8381 10.6793C14.689 10.7554 14.5645 10.8799 14.4885 11.029C14.3751 11.2511 14.3702 11.3738 14.3667 14.0927L14.3631 16.925L12.1537 18.823L9.9444 20.7211L9.59906 20.3537C8.73318 19.4324 8.06584 18.1088 7.76578 16.7174C7.61628 16.0243 7.61622 14.4829 7.76561 13.7902C8.10626 12.2109 8.7445 11.0247 9.8525 9.91164C11.0952 8.66336 12.5513 7.92951 14.266 7.68722C14.8395 7.60616 16.2587 7.66739 16.8338 7.79795ZM17.8895 13.2006V14.0804H17.0097H16.1299V13.2006V12.3208H17.0097H17.8895V13.2006ZM17.1825 20.1344C18.2182 21.0286 19.0682 21.7808 19.0714 21.806C19.0818 21.8881 18.2265 22.2857 17.5962 22.4918C16.0892 22.9847 14.4589 22.9928 12.9647 22.5147C12.4647 22.3548 11.5274 21.9388 11.4297 21.8334C11.3899 21.7906 15.1934 18.4776 15.2601 18.4971C15.2817 18.5034 16.1468 19.2402 17.1825 20.1344Z" fill="black"/>
</svg>
