<svg width="30" height="30" viewBox="0 0 30 30" fill="none" xmlns="http://www.w3.org/2000/svg">
<path fill-rule="evenodd" clip-rule="evenodd" d="M14.5251 0.107915C14.3912 0.178668 14.2601 0.313492 14.1881 0.454705C14.08 0.666437 14.0702 0.799034 14.0702 2.03871C14.0702 3.27897 14.08 3.41086 14.1882 3.62295C14.3209 3.88304 14.6586 4.09038 14.9495 4.09038C15.2404 4.09038 15.5781 3.88304 15.7108 3.62295C15.8189 3.41086 15.8288 3.27897 15.8288 2.03871C15.8288 0.798447 15.8189 0.666555 15.7108 0.454471C15.4945 0.0304793 14.965 -0.124275 14.5251 0.107915ZM7.52972 1.9812C7.37655 2.05706 7.24248 2.18537 7.15637 2.3386C6.9352 2.73211 6.99218 2.91993 7.70604 4.14976C8.05207 4.7458 8.40326 5.30537 8.48656 5.3933C8.90005 5.82984 9.5927 5.69906 9.88755 5.12881C10.0523 4.81016 9.96956 4.54784 9.38407 3.5335C8.58058 2.14135 8.55684 2.10753 8.29235 1.97886C7.99134 1.83237 7.82944 1.83284 7.52972 1.9812ZM21.6614 1.94252C21.3888 2.06843 21.2746 2.22406 20.6012 3.38695C19.9255 4.55388 19.8418 4.8009 20.0114 5.12881C20.3063 5.69918 20.9978 5.82966 21.4132 5.3933C21.4968 5.30537 21.8479 4.74544 22.1933 4.149C22.9088 2.91342 22.9766 2.68721 22.7364 2.3372C22.4579 1.9315 22.0274 1.77346 21.6614 1.94252ZM13.8357 6.47283C10.3179 6.81124 6.75249 8.48071 3.13774 11.4822C2.31092 12.1687 0.278072 14.2125 0.126483 14.5096C-0.14721 15.0461 -0.0312611 15.2887 1.02078 16.3806C4.2137 19.6947 8.04047 22.0947 11.5349 22.9747L12.3116 23.1702V26.2357C12.3116 29.1924 12.3158 29.3095 12.4296 29.5326C12.5056 29.6815 12.6301 29.806 12.7791 29.882C12.9971 29.9932 13.1217 30 14.9495 30C16.7772 30 16.9018 29.9932 17.1199 29.882C17.2689 29.806 17.3934 29.6815 17.4693 29.5326C17.5832 29.3095 17.5873 29.1924 17.5873 26.235V23.1687L18.1589 23.0314C20.907 22.3713 23.8506 20.7944 26.6147 18.5015C27.5953 17.6881 29.6053 15.6879 29.7737 15.3579C30.0649 14.7869 29.9303 14.5478 28.5271 13.1451C24.8559 9.47518 20.9858 7.27005 17.0557 6.609C16.3427 6.48907 14.484 6.41046 13.8357 6.47283ZM16.003 8.28422C18.4949 8.68834 20.5384 10.4257 21.3416 12.8231C22.1471 15.2275 21.5149 17.8732 19.7014 19.6868C18.6599 20.7282 17.3918 21.3735 15.9638 21.5888C12.7193 22.0778 9.60401 20.1707 8.56071 17.0566C7.74843 14.6322 8.37964 11.9905 10.2051 10.1742C11.7469 8.64015 13.89 7.94153 16.003 8.28422ZM14.1675 10.0097C12.2098 10.3659 10.7403 11.6719 10.1628 13.5687C10.0233 14.027 10.0057 14.1804 10.0057 14.9349C10.0057 15.6894 10.0233 15.8429 10.1628 16.3011C10.6812 18.0038 11.8806 19.2032 13.5832 19.7216C14.0415 19.8611 14.195 19.8787 14.9495 19.8787C15.704 19.8787 15.8574 19.8611 16.3157 19.7216C18.0184 19.2032 19.2178 18.0038 19.7361 16.3011C19.8757 15.8429 19.8933 15.6894 19.8933 14.9349C19.8933 14.1804 19.8757 14.027 19.7361 13.5687C19.0861 11.4332 17.311 10.0517 15.1253 9.98013C14.7546 9.96799 14.3235 9.9813 14.1675 10.0097ZM7.69203 10.5238C7.30257 11.0748 6.82178 12.2932 6.61485 13.2532C6.42938 14.1135 6.42938 15.7563 6.61485 16.6166C6.82178 17.5766 7.30257 18.795 7.69203 19.346C7.7547 19.4346 7.79139 19.5072 7.77369 19.5072C7.66472 19.5072 6.14725 18.5031 5.40642 17.9408C4.37982 17.1616 2.48707 15.473 2.22018 15.0982L2.10107 14.9309L2.25371 14.7307C2.47265 14.4437 4.1134 12.9505 4.88506 12.336C5.79389 11.6123 7.59789 10.3749 7.75798 10.3654C7.78436 10.3639 7.7547 10.4352 7.69203 10.5238ZM22.7022 10.6974C23.4958 11.1884 24.2317 11.7091 25.0045 12.3266C25.8353 12.9904 27.2948 14.3169 27.5876 14.6743L27.8012 14.9349L27.5943 15.1874C27.0742 15.822 24.9799 17.6224 23.8234 18.4289C23.2443 18.8328 22.1871 19.5072 22.133 19.5072C22.1146 19.5072 22.1629 19.4069 22.2403 19.2843C22.6945 18.5648 23.1165 17.4606 23.3124 16.4793C23.4564 15.7581 23.4564 14.1117 23.3124 13.3905C23.1165 12.4092 22.6945 11.305 22.2403 10.5855C22.1629 10.4629 22.1133 10.3626 22.1302 10.3626C22.1471 10.3626 22.4045 10.5133 22.7022 10.6974ZM15.9706 11.8831C16.9364 12.2208 17.6771 12.9641 18.0079 13.9272C18.1989 14.4833 18.1989 15.3865 18.0079 15.9426C17.676 16.909 16.922 17.6618 15.9524 17.9949C15.6458 18.1002 15.4366 18.128 14.9495 18.128C14.4624 18.128 14.2531 18.1002 13.9466 17.9949C12.9813 17.6633 12.2215 16.9046 11.8911 15.9426C11.7001 15.3865 11.7001 14.4833 11.8911 13.9272C12.2756 12.8077 13.241 11.9762 14.4219 11.7474C14.7403 11.6858 15.6288 11.7636 15.9706 11.8831ZM15.8288 25.8234V28.2414H14.9495H14.0702V25.8234V23.4054H14.9495H15.8288V25.8234Z" fill="black"/>
</svg>
