<svg width="32" height="32" viewBox="0 0 32 32" fill="none" xmlns="http://www.w3.org/2000/svg">
<path fill-rule="evenodd" clip-rule="evenodd" d="M24.926 1.12092C24.6534 1.28256 24.4706 1.637 24.4706 2.00411C24.4706 2.25535 24.4586 2.27662 24.297 2.31196C24.2015 2.33288 23.969 2.44939 23.7803 2.57088C22.7243 3.25088 22.2765 4.61059 22.7191 5.79295C22.884 6.23367 23.4618 6.80747 24.0441 7.109L24.4706 7.32976V8.79174C24.4706 10.0131 24.4569 10.2537 24.3874 10.2537C24.3416 10.2537 24.1043 10.1482 23.86 10.0192C23.3736 9.76248 23.0607 9.72022 22.767 9.87154C22.2256 10.1504 22.1468 10.8888 22.6147 11.2981C22.8922 11.5408 23.5965 11.8754 24.0735 11.991L24.4706 12.0872V12.3241C24.4706 12.8923 24.9267 13.3444 25.4416 13.2866C25.9474 13.2298 26.2353 12.8651 26.2353 12.2813C26.2353 12.0579 26.2588 11.9532 26.3088 11.9532C26.4979 11.953 27.1285 11.5854 27.4531 11.2859C29.0566 9.8069 28.8014 7.37899 26.9452 6.45332C26.7 6.33107 26.4401 6.21556 26.3674 6.19663C26.2366 6.16258 26.2353 6.15162 26.2353 5.10188C26.2353 4.51863 26.2585 4.04147 26.2869 4.04147C26.3153 4.04147 26.3729 4.08278 26.415 4.13324C26.6562 4.42281 27.2336 4.46888 27.5761 4.22584C27.8082 4.06122 27.9692 3.65221 27.9151 3.36475C27.8375 2.95228 27.1781 2.42484 26.4853 2.22106C26.2459 2.15068 26.2353 2.13767 26.2353 1.91661C26.2353 1.21451 25.5107 0.774152 24.926 1.12092ZM24.4706 4.8068C24.4706 5.27892 24.4002 5.38535 24.3221 5.03114C24.2877 4.87537 24.3861 4.3345 24.4488 4.3345C24.4608 4.3345 24.4706 4.54706 24.4706 4.8068ZM15.5142 7.56753C15.2416 7.72916 15.0588 8.08361 15.0588 8.45071C15.0588 8.70195 15.0468 8.72323 14.8852 8.75857C14.7897 8.77949 14.5572 8.896 14.3685 9.01749C13.3125 9.69748 12.8647 11.0572 13.3073 12.2396C13.4722 12.6803 14.05 13.2541 14.6324 13.5556L15.0588 13.7764V15.2383C15.0588 16.4597 15.0451 16.7003 14.9756 16.7003C14.9298 16.7003 14.6925 16.5948 14.4482 16.4658C13.9618 16.2091 13.6489 16.1668 13.3552 16.3181C12.8138 16.5971 12.735 17.3354 13.2029 17.7447C13.4804 17.9874 14.1847 18.322 14.6618 18.4376L15.0588 18.5338V18.7707C15.0588 19.3389 15.5149 19.7911 16.0298 19.7332C16.5356 19.6764 16.8235 19.3117 16.8235 18.7279C16.8235 18.5045 16.847 18.3998 16.8971 18.3998C17.0862 18.3996 17.7167 18.032 18.0414 17.7325C19.6449 16.2535 19.3896 13.8256 17.5334 12.8999C17.2882 12.7777 17.0283 12.6622 16.9556 12.6432C16.8249 12.6092 16.8235 12.5982 16.8235 11.5485C16.8235 10.9652 16.8468 10.4881 16.8752 10.4881C16.9035 10.4881 16.9612 10.5294 17.0032 10.5798C17.2444 10.8694 17.8218 10.9155 18.1644 10.6724C18.3965 10.5078 18.5575 10.0988 18.5034 9.81136C18.4257 9.39889 17.7663 8.87144 17.0735 8.66767C16.8342 8.59728 16.8235 8.58427 16.8235 8.36321C16.8235 7.66112 16.0989 7.22076 15.5142 7.56753ZM26.4897 8.2596C26.8095 8.63819 26.8374 9.17009 26.562 9.63823C26.2523 10.1647 26.2353 10.1347 26.2353 9.05939C26.2353 8.51242 26.2588 8.08525 26.2889 8.08525C26.3184 8.08525 26.4088 8.16372 26.4897 8.2596ZM15.0588 11.2534C15.0588 11.7255 14.9884 11.832 14.9103 11.4777C14.8759 11.322 14.9744 10.7811 15.0371 10.7811C15.049 10.7811 15.0588 10.9937 15.0588 11.2534ZM6.10247 11.6699C5.82982 11.8315 5.64706 12.186 5.64706 12.5531C5.64706 12.8043 5.63506 12.8256 5.47347 12.861C5.37794 12.8819 5.14547 12.9984 4.95676 13.1199C3.90076 13.7999 3.45294 15.1596 3.89553 16.3419C4.06047 16.7827 4.63824 17.3565 5.22059 17.658L5.64706 17.8788V19.3407C5.64706 20.5621 5.63335 20.8026 5.56382 20.8026C5.51806 20.8026 5.28077 20.6972 5.03647 20.5682C4.55006 20.3115 4.23718 20.2692 3.94347 20.4205C3.40206 20.6994 3.32324 21.4378 3.79118 21.8471C4.06865 22.0898 4.77294 22.4244 5.25 22.54L5.64706 22.6362V22.8731C5.64706 23.4413 6.10318 23.8934 6.61806 23.8356C7.12382 23.7788 7.41176 23.4141 7.41176 22.8303C7.41176 22.6069 7.43524 22.5022 7.48529 22.5021C7.67441 22.502 8.30494 22.1344 8.62959 21.8349C10.2331 20.3559 9.97788 17.928 8.12165 17.0023C7.87647 16.8801 7.61653 16.7645 7.54382 16.7456C7.41312 16.7116 7.41176 16.7006 7.41176 15.6509C7.41176 15.0676 7.435 14.5905 7.46341 14.5905C7.49176 14.5905 7.54941 14.6318 7.59147 14.6822C7.83265 14.9718 8.41006 15.0179 8.75259 14.7748C8.98471 14.6102 9.14571 14.2012 9.09159 13.9137C9.01394 13.5013 8.35453 12.9738 7.66176 12.7701C7.42241 12.6997 7.41176 12.6867 7.41176 12.4656C7.41176 11.7635 6.68718 11.3231 6.10247 11.6699ZM17.0779 14.7062C17.3977 15.0848 17.4256 15.6167 17.1502 16.0848C16.8405 16.6114 16.8235 16.5813 16.8235 15.506C16.8235 14.959 16.8471 14.5319 16.8771 14.5319C16.9066 14.5319 16.997 14.6103 17.0779 14.7062ZM5.64706 15.3558C5.64706 15.8279 5.57665 15.9343 5.49853 15.5801C5.46418 15.4244 5.56259 14.8835 5.62529 14.8835C5.63724 14.8835 5.64706 15.096 5.64706 15.3558ZM7.66618 18.8086C7.98594 19.1872 8.01382 19.7191 7.73847 20.1872C7.42876 20.7137 7.41176 20.6837 7.41176 19.6084C7.41176 19.0614 7.43529 18.6342 7.46535 18.6342C7.49482 18.6342 7.58524 18.7127 7.66618 18.8086ZM20.2801 18.8137C20.1456 18.8844 20.0141 19.0192 19.9418 19.1604C19.833 19.3729 19.8235 19.5045 19.8235 20.8003V22.2092H15.4682C11.2194 22.2092 11.1073 22.212 10.8808 22.3271C10.7314 22.4031 10.6064 22.5276 10.5302 22.6765C10.4212 22.8893 10.4118 23.0203 10.4118 24.3166V25.7255H6.05647C1.80759 25.7255 1.69553 25.7284 1.46906 25.8435C1.31959 25.9194 1.19465 26.0439 1.11841 26.1928C1.00682 26.4108 1 26.5354 1 28.3628C1 30.1901 1.00682 30.3147 1.11841 30.5327C1.19465 30.6816 1.31959 30.8061 1.46906 30.882C1.69982 30.9993 1.78541 31 16 31C30.2146 31 30.3002 30.9993 30.5309 30.882C30.6804 30.8061 30.8054 30.6816 30.8816 30.5327C30.9978 30.3058 31 30.1979 31 24.8464C31 19.4949 30.9978 19.387 30.8816 19.1602C30.8054 19.0112 30.6804 18.8868 30.5309 18.8108C30.3036 18.6953 30.1963 18.6929 25.3994 18.6954C20.6376 18.6979 20.4938 18.7013 20.2801 18.8137ZM29.2353 21.3301V22.2092H25.4118H21.5882V21.3301V20.451H25.4118H29.2353V21.3301ZM19.8235 24.8464V25.7255H16H12.1765V24.8464V23.9673H16H19.8235V24.8464ZM29.2353 24.8464V25.7255H25.4118H21.5882V24.8464V23.9673H25.4118H29.2353V24.8464ZM10.4118 28.3628V29.2418H6.58824H2.76471V28.3628V27.4837H6.58824H10.4118V28.3628ZM19.8235 28.3628V29.2418H16H12.1765V28.3628V27.4837H16H19.8235V28.3628ZM29.2353 28.3628V29.2418H25.4118H21.5882V28.3628V27.4837H25.4118H29.2353V28.3628Z" fill="black"/>
</svg>
