<svg width="32" height="32" viewBox="0 0 32 32" fill="none" xmlns="http://www.w3.org/2000/svg">
<path fill-rule="evenodd" clip-rule="evenodd" d="M6.46472 1.08907C6.36223 1.13958 6.23593 1.22787 6.18401 1.28524C6.1321 1.34261 5.81045 2.13885 5.46932 3.05458C5.12813 3.97037 4.81886 4.74977 4.78202 4.78655C4.74524 4.82339 3.96584 5.13267 3.05005 5.47385C2.13432 5.81498 1.33761 6.13704 1.27965 6.18948C1.00458 6.43845 0.918113 6.90019 1.08472 7.2304C1.13687 7.33365 1.733 7.97548 2.40957 8.65668L3.63961 9.89529L3.45295 10.265C2.94363 11.274 2.45579 12.809 2.22067 14.1426C2.05823 15.0637 1.99705 17.0454 2.10088 18.0204C2.61929 22.8864 5.53009 27.1441 9.87668 29.3943C11.4449 30.2062 12.8972 30.6644 14.7172 30.9215C15.5418 31.038 17.6829 31.0218 18.5303 30.8927C21.7921 30.3956 24.5508 29.0028 26.8149 26.7101C29.0452 24.4516 30.4039 21.7247 30.8885 18.5348C31.0173 17.6869 31.0333 15.545 30.917 14.7217C30.4506 11.4205 29.0533 8.57977 26.7749 6.301C24.4294 3.95512 21.519 2.53547 18.2299 2.13281C17.1394 1.99929 15.1624 2.04376 14.138 2.22485C12.8025 2.46097 11.2688 2.94852 10.2605 3.45748L9.89076 3.64415L8.65215 2.4141C7.97095 1.73754 7.32912 1.1414 7.22587 1.08925C6.99016 0.970338 6.70565 0.970221 6.46472 1.08907ZM8.69837 4.9778L10.1582 6.43851L9.99782 7.33899C9.90959 7.83422 9.82301 8.30165 9.80547 8.37774C9.77707 8.50069 9.5931 8.33567 8.14788 6.89115L6.52221 5.2663L6.85007 4.39163C7.0304 3.9106 7.19155 3.51702 7.20821 3.51702C7.22487 3.51702 7.89545 4.17434 8.69837 4.9778ZM17.9143 3.87029C22.2653 4.35649 26.0467 7.034 27.9783 10.9966C29.6595 14.4452 29.6835 18.4514 28.044 21.9495C27.008 24.1602 25.233 26.1286 23.1057 27.426C18.5154 30.2254 12.5352 29.7782 8.41087 26.3268C5.82059 24.1593 4.20642 21.1488 3.86019 17.8397C3.76386 16.9192 3.81889 15.2319 3.97341 14.3697C4.12681 13.5136 4.38135 12.6121 4.69391 11.8179L4.93895 11.1953L5.20833 11.453C5.68045 11.9047 5.78739 11.9648 6.11626 11.9623C6.28128 11.9611 6.81951 11.8867 7.31228 11.797C7.80505 11.7072 8.20068 11.6489 8.19147 11.6672C7.22558 13.587 6.98001 14.4857 6.93214 16.2763C6.90651 17.2342 6.91971 17.4931 7.02624 18.1185C7.69952 22.0716 10.7757 25.2247 14.7011 25.9854C19.6919 26.9525 24.6196 23.8089 25.863 18.8648C27.0783 14.0329 24.3827 9.07008 19.6479 7.422C18.5167 7.02825 18.0219 6.95357 16.5357 6.95216C15.3809 6.95105 15.1406 6.96742 14.6146 7.08292C13.5949 7.3069 12.9361 7.55528 11.6626 8.196C11.6443 8.20521 11.7027 7.80958 11.7924 7.31681C12.0516 5.89335 12.0413 5.82518 11.4787 5.24225L11.1904 4.94359L11.8245 4.69404C12.8715 4.28193 13.9789 4.01097 15.2745 3.84982C15.664 3.80136 17.4193 3.81497 17.9143 3.87029ZM8.36716 9.80437C8.29442 9.82631 7.82969 9.91594 7.33446 10.0035L6.43398 10.1627L4.97326 8.70291C4.16981 7.89998 3.51249 7.22923 3.51249 7.21239C3.51249 7.19556 3.9019 7.03417 4.37777 6.85378L5.24305 6.52586L6.87125 8.14514C8.32258 9.58854 8.48507 9.76882 8.36716 9.80437ZM17.8263 8.77019C18.1328 8.81982 18.6595 8.95275 18.9967 9.06556C21.7028 9.97079 23.6929 12.2371 24.2619 15.0613C24.4053 15.7729 24.4038 17.3188 24.2591 18.0068C23.5834 21.2189 21.2179 23.5846 18.0023 24.2641C17.2629 24.4204 15.7049 24.4088 14.9518 24.2415C12.1343 23.6158 9.95664 21.6778 9.05997 18.9982C8.75006 18.0721 8.65408 17.3485 8.69139 16.2197C8.72729 15.1343 8.87466 14.4307 9.25849 13.5121C9.49039 12.9571 9.95382 12.1438 10.224 11.8179L10.3698 11.6419L11.4647 12.7338L12.5596 13.8258L12.2886 14.3764C11.9109 15.1435 11.7788 15.7036 11.7782 16.5402C11.7772 17.9178 12.2532 19.0188 13.2653 19.98C13.809 20.4963 14.3427 20.8175 15.0691 21.0658C15.5943 21.2452 15.6755 21.2564 16.4771 21.2594C17.1927 21.2621 17.4003 21.2416 17.7852 21.1301C19.4229 20.6553 20.6508 19.4275 21.1255 17.7897C21.237 17.4048 21.2576 17.1972 21.2549 16.4816C21.2519 15.68 21.2407 15.5988 21.0612 15.0737C20.813 14.3472 20.4917 13.8135 19.9755 13.2698C19.0143 12.2578 17.9132 11.7817 16.5357 11.7827C15.6991 11.7834 15.1389 11.9155 14.3722 12.293L13.8218 12.5639L12.7441 11.4874C12.1513 10.8953 11.6751 10.3845 11.6859 10.3525C11.721 10.247 12.5067 9.74078 13.0453 9.47644C13.7883 9.11185 14.6134 8.8549 15.4798 8.71845C15.8759 8.65603 17.3183 8.68783 17.8263 8.77019ZM17.433 13.6663C18.639 14.0388 19.5298 15.248 19.5267 16.5086C19.5233 17.8997 18.5628 19.1286 17.2342 19.4417C15.6825 19.8075 14.1115 18.9159 13.6541 17.4098C13.4892 16.8669 13.5179 15.9761 13.7169 15.4635L13.8502 15.12L14.9437 16.2042C16.1026 17.3533 16.2753 17.4711 16.6875 17.3938C16.9632 17.3421 17.2819 17.0486 17.3656 16.7694C17.5024 16.3127 17.4049 16.1602 16.2013 14.9482L15.1155 13.8548L15.4296 13.7377C15.8801 13.5697 15.9217 13.5627 16.5149 13.5552C16.9021 13.5503 17.1574 13.5812 17.433 13.6663Z" fill="black"/>
</svg>
