<svg width="32" height="32" xmlns="http://www.w3.org/2000/svg">
    <path d="M11.492 4.266c-2.385.06-5.81.226-6.523.315-1.118.14-1.852.426-2.664 1.04C.97 6.629.349 8.167.116 11.043c-.155 1.92-.155 8.863 0 10.814.196 2.459.615 3.785 1.512 4.788.988 1.103 2.1 1.528 4.496 1.718 3.056.242 11.52.35 15.584.2 2.654-.1 5.132-.242 5.652-.326a4.744 4.744 0 0 0 2.747-1.42c.43-.438.56-.622.83-1.18.586-1.214.814-2.448.917-4.975.022-.555.065-1.025.093-1.043.03-.018.053-1.48.053-3.25 0-2.13-.021-3.206-.062-3.18-.04.024-.063-.142-.063-.454-.001-.918-.185-3.04-.314-3.63-.206-.935-.306-1.243-.601-1.86-.573-1.195-1.701-2.118-3.023-2.474-.662-.178-1.332-.245-3.522-.354-4.211-.207-8.676-.26-12.923-.151m2.154 1.862c-4.083.082-8.218.281-8.92.43-.834.175-1.618.712-1.955 1.338-.714 1.328-.883 2.937-.888 8.448-.005 5.35.15 7.112.74 8.393.142.308.31.542.557.776.887.842 1.763.966 8.125 1.153 4.434.13 9.314.072 13.64-.164 1.74-.095 1.908-.11 2.467-.23.84-.18 1.629-.882 1.95-1.734.27-.716.44-1.52.51-2.42.294-3.688.207-10.825-.154-12.599-.389-1.913-1.12-2.706-2.775-3.014-1.04-.194-9.902-.445-13.297-.377m-.706 4.824c-.333.057-.725.357-.897.685l-.145.278.002 4.17c0 3.926.008 4.186.117 4.424.275.6.975.925 1.555.72.28-.098 7.245-3.888 7.488-4.074.294-.225.472-.614.472-1.032 0-.392-.112-.655-.392-.923-.284-.27-7.393-4.185-7.704-4.242a1.712 1.712 0 0 0-.496-.006M.015 16.44c0 1.787.012 2.518.028 1.625.016-.894.016-2.357 0-3.25-.016-.894-.028-.163-.028 1.625m13.756-.35c0 1.58.011 2.874.025 2.874.014 0 1.196-.636 2.626-1.413l2.602-1.412-.332-.19c-.183-.104-1.246-.692-2.361-1.307a331.88 331.88 0 0 1-2.295-1.272l-.265-.154v2.874" fill="#FFF" fill-rule="evenodd" opacity=".7"/>
</svg>
