<svg width="120" height="32" xmlns="http://www.w3.org/2000/svg">
    <g fill-rule="nonzero" fill="none">
        <path d="M39.964 23.742h-5.631l-1.353 3.91h-2.385l5.334-14.463h2.478l5.335 14.462h-2.426l-1.352-3.909zm-5.048-1.803h4.464l-2.2-6.344h-.062l-2.202 6.344zm20.346.44c0 3.277-1.792 5.383-4.496 5.383a3.67 3.67 0 0 1-3.389-1.845h-.05v5.222h-2.212V17.107h2.14v1.754h.04a3.84 3.84 0 0 1 3.43-1.864c2.735 0 4.537 2.115 4.537 5.383zm-2.273 0c0-2.134-1.127-3.537-2.847-3.537-1.689 0-2.825 1.433-2.825 3.538 0 2.124 1.136 3.547 2.825 3.547 1.72 0 2.847-1.393 2.847-3.547zm14.13 0c0 3.277-1.793 5.383-4.497 5.383a3.67 3.67 0 0 1-3.389-1.845h-.051v5.222H56.97V17.107h2.14v1.754h.04a3.84 3.84 0 0 1 3.43-1.864c2.735 0 4.537 2.115 4.537 5.383zm-2.274 0c0-2.134-1.127-3.537-2.847-3.537-1.689 0-2.825 1.433-2.825 3.538 0 2.124 1.136 3.547 2.825 3.547 1.72 0 2.847-1.393 2.847-3.547zm10.108 1.243c.164 1.434 1.587 2.376 3.532 2.376 1.864 0 3.204-.942 3.204-2.235 0-1.123-.808-1.795-2.723-2.256l-1.915-.451c-2.713-.642-3.972-1.884-3.972-3.899 0-2.495 2.221-4.21 5.375-4.21 3.123 0 5.263 1.715 5.335 4.21h-2.232c-.134-1.443-1.352-2.314-3.134-2.314-1.78 0-3 .881-3 2.164 0 1.022.779 1.624 2.683 2.085l1.628.39c3.031.703 4.29 1.895 4.29 4.01 0 2.706-2.201 4.4-5.703 4.4-3.276 0-5.489-1.654-5.632-4.27h2.264zm13.845-9.01v2.495h2.048v1.714h-2.048v5.813c0 .903.41 1.324 1.31 1.324.244-.004.486-.021.728-.05v1.703a6.2 6.2 0 0 1-1.228.1c-2.181 0-3.032-.801-3.032-2.846V18.82H85.01v-1.714h1.566v-2.495h2.222zm3.233 7.768c0-3.318 1.996-5.402 5.11-5.402 3.122 0 5.11 2.084 5.11 5.402 0 3.327-1.977 5.402-5.11 5.402s-5.11-2.076-5.11-5.402zm7.966 0c0-2.276-1.065-3.62-2.857-3.62-1.791 0-2.857 1.354-2.857 3.62 0 2.285 1.066 3.618 2.857 3.618 1.792 0 2.857-1.333 2.857-3.618zm4.076-5.273h2.109v1.795h.051c.294-1.155 1.376-1.95 2.591-1.905.255-.001.509.026.758.08v2.025a3.153 3.153 0 0 0-.994-.13 2.252 2.252 0 0 0-1.722.693 2.152 2.152 0 0 0-.582 1.732v6.254h-2.21V17.107zm15.703 7.447c-.297 1.914-2.202 3.228-4.638 3.228-3.134 0-5.079-2.055-5.079-5.352 0-3.307 1.956-5.452 4.986-5.452 2.98 0 4.854 2.003 4.854 5.2v.742h-7.608v.13a2.711 2.711 0 0 0 .76 2.134 2.837 2.837 0 0 0 2.138.853 2.443 2.443 0 0 0 2.487-1.483h2.1zm-7.474-3.147h5.385a2.505 2.505 0 0 0-.724-1.903 2.62 2.62 0 0 0-1.918-.773 2.758 2.758 0 0 0-1.941.779 2.641 2.641 0 0 0-.802 1.897zM19.474 15.443c.028-2.061 1.149-3.965 2.97-5.045-1.154-1.59-3.018-2.561-5.03-2.622-2.116-.214-4.167 1.22-5.246 1.22-1.099 0-2.76-1.199-4.547-1.163-2.352.073-4.492 1.331-5.637 3.314-2.437 4.07-.619 10.049 1.716 13.338 1.168 1.61 2.533 3.41 4.319 3.345 1.748-.07 2.4-1.074 4.51-1.074 2.091 0 2.703 1.074 4.526 1.034 1.876-.03 3.057-1.618 4.184-3.244a13.131 13.131 0 0 0 1.914-3.757c-2.228-.909-3.676-3.014-3.679-5.346zm-3.442-9.83a5.782 5.782 0 0 0 1.404-4.242 6.326 6.326 0 0 0-4.042 2.017 5.509 5.509 0 0 0-1.441 4.085c1.583.015 3.087-.67 4.079-1.86z" fill="#000"/>
        <path d="M34.608 6.679V2.554h1.455v-.636H32.41v.636h1.459V6.68h.739zm3.567-3.864c.234-.155.35-.33.35-.541 0-.343-.34-.561-.743-.561-.161 0-.307.03-.396.063v.39c.053-.01.122-.02.228-.02.238 0 .419.088.419.243 0 .13-.119.268-.317.416v.01h.459zm-.578 3.927c.46 0 .862-.238 1.063-.61h.013v.547h.716V4.287c0-.696-.538-1.145-1.386-1.145-.854 0-1.372.458-1.422 1.056l-.003.036h.673l.007-.03c.059-.277.313-.472.726-.472.442 0 .69.231.69.614v.26l-.945.057c-.821.05-1.29.419-1.29 1.023v.006c0 .624.466 1.05 1.158 1.05zm.195-.571c-.383 0-.633-.192-.633-.495v-.007c0-.293.237-.481.666-.508l.848-.053v.27c0 .453-.38.793-.88.793zm2.673-3.498a.41.41 0 1 0 0-.821.413.413 0 0 0-.416.412c0 .224.185.41.416.41zm.356 4.006V3.208h-.712v3.471h.712zm2.818 0V4.656c0-.54.323-.904.825-.904.495 0 .74.294.74.815V6.68h.715V4.432c0-.799-.439-1.29-1.2-1.29-.526 0-.882.237-1.063.59h-.017v-.524h-.713v3.471h.713zm4.488 1.224c.98 0 1.593-.528 1.593-1.32V3.208h-.716v.59h-.016a1.186 1.186 0 0 0-1.076-.656c-.88 0-1.462.683-1.462 1.772v.003c0 1.082.575 1.765 1.446 1.765.498 0 .894-.24 1.092-.617h.016v.475c0 .485-.313.789-.88.789-.446 0-.746-.152-.842-.373l-.013-.026h-.706l.003.03c.106.53.67.943 1.56.943zm-.03-1.801c-.564 0-.917-.45-.917-1.175v-.003c0-.716.353-1.172.917-1.172.541 0 .907.459.907 1.172v.003c0 .716-.363 1.175-.907 1.175zm3.346.64c.458 0 .861-.238 1.062-.61h.013v.547h.717V4.287c0-.696-.538-1.145-1.386-1.145-.855 0-1.373.458-1.422 1.056l-.004.036h.673l.007-.03c.06-.277.313-.472.726-.472.442 0 .69.231.69.614v.26l-.944.057c-.822.05-1.29.419-1.29 1.023v.006c0 .624.465 1.05 1.158 1.05zm.194-.571c-.382 0-.633-.192-.633-.495v-.007c0-.293.238-.481.666-.508l.848-.053v.27c0 .453-.379.793-.88.793zm2.696 1.666c.68 0 1.043-.277 1.3-.996l1.294-3.633h-.753L55.3 6.032h-.023l-.874-2.824h-.773l1.264 3.474-.06.165c-.118.337-.303.426-.64.426-.095 0-.177-.013-.234-.026v.557c.086.017.235.033.373.033zm5.593-1.089c.145 0 .28-.016.363-.03v-.55a1.49 1.49 0 0 1-.191.013c-.3 0-.459-.106-.459-.459V3.775h.65v-.567h-.65v-.904h-.73v.904h-.497v.567h.498v1.99c0 .693.33.983 1.016.983zm1.663-.069V4.61c0-.518.284-.818.743-.818.138 0 .264.016.32.04v-.664c-.056-.01-.145-.026-.248-.026-.396 0-.686.254-.798.66h-.017v-.594h-.713v3.471h.713zm2.468-3.864.499-.686.504.686h.568l-.752-1.04h-.637l-.75 1.04h.568zm.518 3.933c.842 0 1.376-.501 1.489-1.052l.006-.037h-.676l-.01.027c-.09.26-.37.478-.792.478-.568 0-.927-.383-.94-1.04h2.458v-.24c0-1.043-.598-1.742-1.57-1.742-.974 0-1.601.726-1.601 1.811v.004c0 1.095.617 1.791 1.636 1.791zm.829-2.128H63.66c.063-.58.42-.894.881-.894.466 0 .802.293.862.894zm1.97 2.059V4.656c0-.54.323-.904.824-.904.495 0 .74.294.74.815V6.68h.716V4.432c0-.799-.44-1.29-1.202-1.29-.524 0-.88.237-1.062.59h-.017v-.524h-.712v3.471h.712z" fill="#131415"/>
    </g>
</svg>
