<svg width="130" height="32" xmlns="http://www.w3.org/2000/svg">
    <defs>
        <linearGradient x1="60.897%" y1="4.948%" x2="26.793%" y2="71.907%" id="a">
            <stop stop-color="#00A0FF" offset="0%"/>
            <stop stop-color="#00A1FF" offset="1%"/>
            <stop stop-color="#00BEFF" offset="26%"/>
            <stop stop-color="#00D2FF" offset="51%"/>
            <stop stop-color="#00DFFF" offset="76%"/>
            <stop stop-color="#00E3FF" offset="100%"/>
        </linearGradient>
        <linearGradient x1="107.685%" y1="50%" x2="-130.64%" y2="50%" id="b">
            <stop stop-color="#FFE000" offset="0%"/>
            <stop stop-color="#FFBD00" offset="41%"/>
            <stop stop-color="orange" offset="78%"/>
            <stop stop-color="#FF9C00" offset="100%"/>
        </linearGradient>
        <linearGradient x1="86.219%" y1="30.672%" x2="-50.15%" y2="137.064%" id="c">
            <stop stop-color="#FF3A44" offset="0%"/>
            <stop stop-color="#C31162" offset="100%"/>
        </linearGradient>
        <linearGradient x1="-18.754%" y1="-12.606%" x2="42.121%" y2="34.908%" id="d">
            <stop stop-color="#32A071" offset="0%"/>
            <stop stop-color="#2DA771" offset="7%"/>
            <stop stop-color="#15CF74" offset="48%"/>
            <stop stop-color="#06E775" offset="80%"/>
            <stop stop-color="#00F076" offset="100%"/>
        </linearGradient>
    </defs>
    <g fill-rule="nonzero" fill="none">
        <path d="M65.285 18.74c-2.598.011-4.696 2.071-4.688 4.603.009 2.532 2.12 4.579 4.717 4.575 2.599-.004 4.703-2.057 4.703-4.59a4.466 4.466 0 0 0-1.368-3.272 4.708 4.708 0 0 0-3.364-1.317zm0 7.375c-1.171.08-2.273-.546-2.78-1.579a2.732 2.732 0 0 1 .487-3.098 2.911 2.911 0 0 1 3.136-.696c1.093.417 1.814 1.443 1.816 2.587a2.617 2.617 0 0 1-.726 1.94c-.501.524-1.198.83-1.933.846zm-10.317-7.376c-2.6.006-4.702 2.064-4.698 4.597.004 2.533 2.113 4.584 4.713 4.582 2.6-.002 4.706-2.056 4.706-4.59a4.466 4.466 0 0 0-1.367-3.272 4.708 4.708 0 0 0-3.365-1.317h.011zm0 7.376c-1.172.084-2.277-.539-2.786-1.57a2.732 2.732 0 0 1 .478-3.102 2.911 2.911 0 0 1 3.137-.702c1.095.417 1.816 1.443 1.82 2.588a2.617 2.617 0 0 1-.727 1.94c-.501.524-1.198.83-1.933.846h.011zm-12.29-5.96v1.943h4.788a4.022 4.022 0 0 1-1.108 2.451 4.967 4.967 0 0 1-3.69 1.425c-2.938 0-5.32-2.32-5.32-5.183 0-2.862 2.382-5.183 5.32-5.183a5.17 5.17 0 0 1 3.623 1.393L47.7 15.63a7.064 7.064 0 0 0-5.02-2.02c-2.683-.101-5.208 1.235-6.58 3.484a6.981 6.981 0 0 0 0 7.297c1.372 2.249 3.897 3.586 6.58 3.484a6.74 6.74 0 0 0 5.108-1.998 6.383 6.383 0 0 0 1.73-4.557 6.181 6.181 0 0 0-.112-1.22l-6.726.054zm50.21 1.51c-.591-1.695-2.196-2.86-4.033-2.926a4.488 4.488 0 0 0-3.236 1.36 4.255 4.255 0 0 0-1.197 3.23 4.432 4.432 0 0 0 1.338 3.263 4.673 4.673 0 0 0 3.339 1.326 4.722 4.722 0 0 0 3.923-2.03l-1.607-1.08a2.708 2.708 0 0 1-2.316 1.274 2.4 2.4 0 0 1-2.283-1.393l6.305-2.537-.232-.486zM86.462 23.2a2.477 2.477 0 0 1 .653-1.842 2.61 2.61 0 0 1 1.807-.836c.731-.047 1.42.336 1.751.972l-4.21 1.706zm-5.12 4.45h2.073V14.15h-2.072v13.498zm-3.39-7.884h-.078a3.364 3.364 0 0 0-2.482-1.08c-2.515.12-4.492 2.141-4.492 4.595 0 2.454 1.977 4.476 4.492 4.595.95.015 1.86-.38 2.482-1.08h.067v.659c0 1.76-.964 2.7-2.516 2.7-1.056-.025-1.994-.67-2.371-1.631l-1.806.734c.695 1.649 2.348 2.721 4.177 2.71 2.427 0 4.433-1.393 4.433-4.783v-8.175H77.95v.756zm-2.372 6.35c-1.481-.128-2.618-1.337-2.618-2.786 0-1.45 1.137-2.659 2.618-2.786a2.687 2.687 0 0 1 1.86.876 2.55 2.55 0 0 1 .656 1.91c.061.7-.174 1.393-.652 1.92a2.665 2.665 0 0 1-1.875.866h.011zm27.017-11.965h-4.953v13.498h2.072V22.53h2.892c1.61.112 3.15-.66 3.99-2.003a4.11 4.11 0 0 0 0-4.374c-.84-1.342-2.38-2.115-3.99-2.003h-.011zm0 6.48h-2.892v-4.6h2.936c1.313 0 2.377 1.036 2.377 2.315 0 1.28-1.064 2.317-2.377 2.317l-.044-.033zm12.777-1.945c-1.542-.09-2.992.72-3.69 2.063l1.84.745a1.974 1.974 0 0 1 1.883-.993c.531-.06 1.065.09 1.482.416.417.327.681.803.734 1.322v.14a4.673 4.673 0 0 0-2.16-.518c-1.984 0-3.99 1.08-3.99 3.035a3.09 3.09 0 0 0 1.074 2.191c.647.56 1.499.84 2.361.778a2.94 2.94 0 0 0 2.66-1.296h.066v1.08h1.995v-5.194c0-2.365-1.84-3.736-4.2-3.736l-.055-.033zm-.255 7.397c-.676 0-1.618-.334-1.618-1.144 0-1.08 1.175-1.436 2.216-1.436a3.756 3.756 0 0 1 1.884.453c-.143 1.209-1.178 2.13-2.427 2.16l-.055-.033zm11.78-7.073-2.372 5.853h-.067L122 19.01h-2.216l3.69 8.186-2.105 4.546h2.16l5.674-12.732h-2.305zm-18.628 8.64h2.072V14.15h-2.072v13.498z" fill="#090E18"/>
        <path d="M.619.595a2.213 2.213 0 0 0-.504 1.543v24.379c-.033.56.147 1.112.504 1.543l.077.077 13.57-13.644v-.32L.696.518.619.595z" fill="url(#a)" transform="translate(.767 1.63)"/>
        <path d="m18.757 19.045-4.49-4.552v-.32l4.49-4.563.098.056 5.378 3.075c1.534.87 1.534 2.303 0 3.185l-5.356 3.064-.12.055z" fill="url(#b)" transform="translate(.767 1.63)"/>
        <path d="m18.888 18.979-4.622-4.651L.62 28.06c.645.57 1.602.598 2.278.066l16.002-9.147" fill="url(#c)" transform="translate(.767 1.63)"/>
        <path d="M18.888 9.677 2.886.529A1.777 1.777 0 0 0 .608.595l13.658 13.733 4.622-4.651z" fill="url(#d)" transform="translate(.767 1.63)"/>
        <path d="M19.523 20.509 3.653 29.6a1.82 1.82 0 0 1-2.191 0l-.077.077.077.077a1.81 1.81 0 0 0 2.19 0l16.003-9.147-.132-.1z" fill="#000" opacity=".2"/>
        <path d="M1.385 29.535a2.213 2.213 0 0 1-.503-1.543v.165c-.034.56.146 1.112.503 1.543l.077-.077-.077-.088zM25 17.39l-5.477 3.119.099.099L25 17.544a1.928 1.928 0 0 0 1.095-1.587A2.048 2.048 0 0 1 25 17.39z" fill="#000" opacity=".12"/>
        <path d="M3.653 2.313 25 14.524c.566.281.97.81 1.095 1.433A1.928 1.928 0 0 0 25 14.37L3.653 2.158C2.119 1.288.87 2.015.87 3.778v.166c.032-1.775 1.26-2.502 2.782-1.631z" fill="#FFF" opacity=".25"/>
        <path d="M38.127 6.823V2.596h1.502V2.06h-3.597v.535h1.501v4.227h.594zm3.914-5.144c.224-.149.326-.31.326-.499 0-.307-.316-.505-.663-.505-.148 0-.28.027-.356.057v.336c.043-.006.102-.016.201-.016.218 0 .39.082.39.224 0 .115-.11.247-.307.393v.01h.409zm-1.6 5.144.481-1.363h1.917l.482 1.363h.624L42.176 2.06h-.587l-1.772 4.762h.623zm2.22-1.868h-1.557l.772-2.181h.013l.772 2.181zm3.023 1.868V2.06h-.594v4.762h.594zm4.098 0V3.064h.017l2.62 3.759h.577V2.06h-.587V5.82h-.017l-2.62-3.759h-.577v4.762h.587zm6.735.079c1.27 0 2.02-.762 2.02-2.05v-.451h-1.938v.521h1.343v.086c0 .798-.58 1.346-1.425 1.346-.97 0-1.574-.739-1.574-1.937v-.003c0-1.175.594-1.884 1.574-1.884.67 0 1.132.346 1.353.95l.013.036h.624l-.017-.062c-.221-.842-.878-1.472-1.973-1.472-1.33 0-2.181.944-2.181 2.432v.003c0 1.518.851 2.485 2.18 2.485zm3.623-.08.482-1.362h1.917l.482 1.363h.623L61.876 2.06h-.588l-1.772 4.762h.624zm2.22-1.867h-1.557l.772-2.181h.014l.772 2.181zm3.74 1.868v-2.05l1.689-2.712h-.677l-1.3 2.138h-.02l-1.3-2.138h-.676l1.69 2.713v2.049h.593zm6.619 0V2.596h1.501V2.06h-3.597v.535h1.502v4.227h.594zm3.323 0V4.939h1.138l1.02 1.884h.696l-1.102-1.977c.594-.188.957-.7.957-1.36V3.48c0-.858-.6-1.419-1.518-1.419h-1.785v4.762h.594zm1.138-2.409h-1.138V2.589h1.112c.61 0 .983.337.983.904V3.5c0 .584-.347.914-.957.914zm3.914-2.735.478-.667.478.667h.486l-.707-.954h-.514l-.706.954h.485zm1.953 5.144v-.535H80.69V4.652h2.234v-.528H80.69V2.596h2.356V2.06h-2.95v4.762h2.95zm1.97 0V3.064h.016l2.62 3.759h.578V2.06h-.587V5.82h-.017l-2.62-3.759h-.577v4.762h.587z" fill="#131415"/>
    </g>
</svg>
